<?xml version="1.0" encoding="UTF-8" standalone="no"?>
<!-- Created with Inkscape (http://www.inkscape.org/) -->

<svg
   width="740"
   height="1010"
   viewBox="0 0 195.79168 267.22916"
   version="1.1"
   id="svg7797"
   xml:space="preserve"
   inkscape:version="1.2.1 (9c6d41e410, 2022-07-14)"
   sodipodi:docname="ACCION COMUNAL COLOMBIA JAC.svg"
   xmlns:inkscape="http://www.inkscape.org/namespaces/inkscape"
   xmlns:sodipodi="http://sodipodi.sourceforge.net/DTD/sodipodi-0.dtd"
   xmlns="http://www.w3.org/2000/svg"
   xmlns:svg="http://www.w3.org/2000/svg"><sodipodi:namedview
     id="namedview7799"
     pagecolor="#ffffff"
     bordercolor="#000000"
     borderopacity="0.25"
     inkscape:showpageshadow="2"
     inkscape:pageopacity="0.0"
     inkscape:pagecheckerboard="0"
     inkscape:deskcolor="#d1d1d1"
     inkscape:document-units="px"
     showgrid="false"
     inkscape:zoom="0.64000706"
     inkscape:cx="310.15283"
     inkscape:cy="210.15393"
     inkscape:window-width="1360"
     inkscape:window-height="697"
     inkscape:window-x="-8"
     inkscape:window-y="-8"
     inkscape:window-maximized="1"
     inkscape:current-layer="layer1"
     showguides="true" /><defs
     id="defs7794" /><g
     inkscape:label="Capa 1"
     inkscape:groupmode="layer"
     id="layer1"><path
       style="color:#000000;fill:#ffff00;stroke:#000000;stroke-width:1.01198;stroke-linecap:round;stroke-miterlimit:3.3;stroke-opacity:1;paint-order:normal"
       d="M 24.264167,38.810137 V 132.3621 c 0,0.83528 0.0099,1.66558 0.02933,2.49109 0.01943,0.82553 0.04844,1.64657 0.08694,2.46238 0.03851,0.81582 0.08629,1.62647 0.143516,2.43261 0.05723,0.80615 0.123979,1.60788 0.199562,2.40442 0.07558,0.79655 0.159927,1.5882 0.25351,2.37518 0.09358,0.78698 0.19623,1.56899 0.30746,2.34647 0.111227,0.77746 0.231321,1.55023 0.359838,2.31825 0.128515,0.76802 0.2652,1.53146 0.410644,2.29007 0.145445,0.75862 0.299436,1.51263 0.461453,2.26189 0.162017,0.74924 0.332455,1.49373 0.510687,2.23367 0.17823,0.73995 0.364263,1.47531 0.558351,2.20601 0.194089,0.7307 0.395904,1.45683 0.605491,2.17833 0.209588,0.72151 0.426855,1.43833 0.651584,2.15067 0.224731,0.71234 0.457115,1.42027 0.69663,2.12351 0.239516,0.70325 0.486163,1.40165 0.740104,2.09585 0.253942,0.69418 0.515043,1.38401 0.783054,2.06918 0.268011,0.6852 0.543233,1.36583 0.824956,2.04208 0.281724,0.67624 0.570209,1.34807 0.865288,2.01543 0.295078,0.66734 0.596495,1.3303 0.904571,1.98879 0.308075,0.65851 0.622617,1.31246 0.94333,1.96217 0.320715,0.64972 0.647524,1.29511 0.980521,1.93607 0.332996,0.64099 0.672262,1.27768 1.017182,1.90997 0.344922,0.63228 0.69579,1.26021 1.05228,1.88386 0.356487,0.62363 0.718623,1.24268 1.086322,1.85773 0.367699,0.61504 0.740772,1.22618 1.11932,1.83269 0.378552,0.6065 0.762753,1.20855 1.151798,1.80656 0.389045,0.59804 0.782992,1.19195 1.182175,1.78153 0.399182,0.58958 0.803593,1.17473 1.212555,1.75593 0.408962,0.58119 0.822455,1.15852 1.240838,1.73139 0.418385,0.57285 0.841674,1.14122 1.269123,1.7058 0.427451,0.56458 0.859157,1.12493 1.295313,1.68127 0.436155,0.55633 0.876471,1.10857 1.320977,1.65673 0.444507,0.54815 0.893098,1.09267 1.345597,1.63269 0.452498,0.54003 0.909031,1.07572 1.369165,1.60766 0.920266,1.06388 1.855143,2.11188 2.803803,3.14374 0.94866,1.03187 1.910795,2.04796 2.88499,3.04822 0.974195,1.00026 1.960925,1.98464 2.957795,2.9537 0.996871,0.96907 2.003965,1.92249 3.02065,2.86076 1.016685,0.93827 2.042531,1.8615 3.076168,2.76939 1.033639,0.90788 2.075054,1.80063 3.122788,2.67853 1.047735,0.87792 2.102052,1.74091 3.161023,2.58926 1.058969,0.84834 2.123009,1.68184 3.190354,2.50101 1.067345,0.81917 2.137922,1.62392 3.210783,2.41435 1.072859,0.79042 2.147836,1.56663 3.223352,2.3287 1.075516,0.76207 2.151708,1.50998 3.22702,2.24412 1.07531,0.73413 2.149533,1.4545 3.221781,2.16111 1.072247,0.7066 2.142364,1.39964 3.208687,2.07913 1.066322,0.67948 2.129148,1.34542 3.186687,1.9982 1.05754,0.65276 2.109891,1.29237 3.155786,1.91882 1.04589,-0.62645 2.098244,-1.26606 3.155771,-1.91882 1.05756,-0.65278 2.12038,-1.31872 3.18671,-1.9982 1.06632,-0.67949 2.13644,-1.37253 3.20868,-2.07913 1.07225,-0.70661 2.14647,-1.42698 3.22178,-2.16111 1.07532,-0.73414 2.15151,-1.48205 3.22702,-2.24412 1.07553,-0.76207 2.1505,-1.53828 3.22337,-2.3287 1.07285,-0.79043 2.14342,-1.59518 3.21076,-2.41435 1.06735,-0.81917 2.13139,-1.65267 3.19036,-2.50101 1.05897,-0.84835 2.11329,-1.71134 3.16102,-2.58926 1.04774,-0.8779 2.08915,-1.77065 3.1228,-2.67853 1.03363,-0.90789 2.05949,-1.83112 3.07616,-2.76939 1.0167,-0.93827 2.02379,-1.89169 3.02065,-2.86076 0.99687,-0.96906 1.98307,-1.95344 2.95727,-2.9537 0.97419,-1.00026 1.93633,-2.01635 2.88498,-3.04822 0.94867,-1.03186 1.88407,-2.07986 2.80433,-3.14374 0.46015,-0.53194 0.91667,-1.06763 1.36917,-1.60766 0.45251,-0.54002 0.9011,-1.08454 1.34561,-1.63269 0.4445,-0.54816 0.8848,-1.1004 1.32097,-1.65673 0.43616,-0.55634 0.86787,-1.11669 1.29531,-1.68127 0.42745,-0.56458 0.85074,-1.13295 1.26914,-1.7058 0.41837,-0.57287 0.83187,-1.1502 1.24083,-1.73139 0.40896,-0.5812 0.81338,-1.16635 1.21256,-1.75593 0.39917,-0.58958 0.79312,-1.18349 1.18217,-1.78153 0.38903,-0.59801 0.77323,-1.20006 1.15178,-1.80656 0.37855,-0.60651 0.75164,-1.21765 1.11933,-1.83269 0.36769,-0.61505 0.72983,-1.2341 1.08633,-1.85773 0.35648,-0.62365 0.70734,-1.25158 1.05227,-1.88386 0.34492,-0.63229 0.68419,-1.26898 1.01718,-1.90997 0.333,-0.64096 0.65981,-1.28635 0.98053,-1.93607 0.3207,-0.64971 0.63524,-1.30366 0.94333,-1.96217 0.30807,-0.65849 0.60949,-1.32145 0.90456,-1.98879 0.29508,-0.66736 0.58357,-1.33919 0.86529,-2.01543 0.28173,-0.67625 0.55696,-1.35688 0.82497,-2.04208 0.26801,-0.68517 0.5291,-1.375 0.78304,-2.06918 0.25394,-0.6942 0.50059,-1.3926 0.74011,-2.09585 0.23951,-0.70324 0.47191,-1.41117 0.69663,-2.12351 0.22472,-0.71234 0.442,-1.42916 0.65158,-2.15067 0.20959,-0.7215 0.4114,-1.44763 0.60549,-2.17833 0.1941,-0.7307 0.38013,-1.46606 0.55836,-2.20601 0.17822,-0.73994 0.34867,-1.48443 0.51069,-2.23367 0.16201,-0.74926 0.31547,-1.50327 0.46092,-2.26189 0.14544,-0.75861 0.28265,-1.52205 0.41117,-2.29007 0.12851,-0.76802 0.24861,-1.54079 0.35985,-2.31825 0.11122,-0.77748 0.21387,-1.55949 0.30745,-2.34647 0.0936,-0.78698 0.17793,-1.57863 0.25351,-2.37518 0.0756,-0.79654 0.14234,-1.59827 0.19957,-2.40442 0.0573,-0.80614 0.105,-1.61679 0.14351,-2.43261 0.0385,-0.81581 0.0675,-1.63685 0.087,-2.46238 0.0195,-0.82551 0.0293,-1.65581 0.0293,-2.49109 V 38.810137 H 97.895308 Z"
       id="path21219" /><path
       id="rect24944-9"
       style="fill:#84bc27;fill-opacity:1;stroke:#000000;stroke-width:0;stroke-linecap:round;stroke-linejoin:miter;stroke-miterlimit:3.3;stroke-dasharray:none;stroke-opacity:1;paint-order:normal;stop-color:#000000"
       d="M 24.264167,96.284344 V 132.3621 c 0,0.83528 0.0099,1.66558 0.02933,2.49109 0.01943,0.82553 0.04844,1.64657 0.08694,2.46238 0.03851,0.81582 0.08629,1.62647 0.143516,2.43261 0.05723,0.80615 0.123979,1.60788 0.199562,2.40442 0.07558,0.79655 0.159927,1.5882 0.25351,2.37518 0.09358,0.78698 0.19623,1.56899 0.30746,2.34647 0.111227,0.77746 0.231321,1.55023 0.359838,2.31825 0.128515,0.76802 0.2652,1.53146 0.410644,2.29007 0.145445,0.75862 0.299437,1.51263 0.461453,2.26189 0.0027,0.0128 0.0061,0.0254 0.0089,0.0381 h 142.73997 c 0.003,-0.0128 0.006,-0.0253 0.009,-0.0381 0.16202,-0.74926 0.31547,-1.50327 0.46092,-2.26189 0.14544,-0.75861 0.28265,-1.52205 0.41117,-2.29007 0.12852,-0.76802 0.24862,-1.54079 0.35986,-2.31825 0.11121,-0.77748 0.21387,-1.55949 0.30745,-2.34647 0.0936,-0.78698 0.17792,-1.57863 0.2535,-2.37518 0.0756,-0.79654 0.14234,-1.59827 0.19957,-2.40442 0.0573,-0.80614 0.105,-1.61679 0.14351,-2.43261 0.0385,-0.81581 0.0675,-1.63685 0.087,-2.46238 0.0195,-0.82551 0.0293,-1.65581 0.0293,-2.49109 V 96.284344 Z" /><g
       id="g960"
       transform="matrix(1.0135753,0,0,1.0107322,-1.3289125,-1.3213924)"><path
         id="path20243"
         style="fill:#ffffff;fill-opacity:1;stroke:#000000;stroke-width:0.396875;stroke-linecap:round;stroke-linejoin:miter;stroke-miterlimit:3.3;stroke-dasharray:none;stroke-opacity:1;paint-order:normal;stop-color:#000000"
         d="m 130.26197,106.14377 -56.405094,47.31326 h 3.228242 L 131.59627,107.7328 Z" /><path
         style="fill:#ffffff;stroke:#000000;stroke-width:0.396875;stroke-linecap:round;stroke-linejoin:miter;stroke-miterlimit:3.3;stroke-dasharray:none;stroke-opacity:1;paint-order:normal;stop-color:#000000"
         d="m 135.79353,128.24712 c -4.30268,-8.14293 -9.29957,-13.55263 -16.53758,-10.13834 l -2.91307,2.4435 -1.35858,-1.61853 c 7.08406,-6.39307 -0.13701,-17.40224 -4.13983,-21.980432 6.83728,1.415781 12.35789,5.422642 17.21276,10.739622 0.52461,0.57455 1.04145,1.1644 1.55134,1.76793 3.79907,4.49679 7.21217,9.75312 10.57903,15.10046 z"
         id="path18550"
         sodipodi:nodetypes="cccccsscc" /><path
         id="rect16245"
         style="fill:#ffffff;stroke:#000000;stroke-width:0.396875;stroke-linecap:round;stroke-linejoin:miter;stroke-miterlimit:3.3;stroke-dasharray:none;stroke-opacity:1;paint-order:normal;stop-color:#000000"
         d="m 117.38801,119.73999 c 0.0521,0.062 0.0436,0.15355 -0.0184,0.20557 l -2.45476,2.05907 c -0.062,0.0521 -0.15369,0.0444 -0.20571,-0.0176 l -0.30858,-0.36764 -0.30859,-0.36762 -0.18767,-0.22359 -0.3086,-0.36764 -0.30858,-0.36762 c -0.0521,-0.062 -0.0436,-0.15356 0.0184,-0.20558 l 2.45476,-2.05908 c 0.062,-0.0521 0.15368,-0.0444 0.20571,0.0176 l 0.30859,0.36763 0.30859,0.36763 0.18767,0.22359 0.30859,0.36763 z" /></g><path
       id="rect24944"
       style="fill:#ffffff;stroke:#000000;stroke-width:0;stroke-linecap:round;stroke-miterlimit:3.3;stroke-dasharray:none;paint-order:normal;stop-color:#000000"
       d="M 24.264168,38.7856 H 171.52644 V 96.284088 H 24.264168 Z" /><g
       id="g19421"
       transform="matrix(1.0135795,0,0,1.0103872,36.373913,-6.3318429)"
       style="fill:#ffffff;stroke:#000000;stroke-width:0.396942;stroke-linecap:round;stroke-dasharray:none;stroke-opacity:1;paint-order:normal"><path
         style="fill:#ffffff;stroke:#000000;stroke-width:0.396942;stroke-linecap:round;stroke-linejoin:miter;stroke-miterlimit:3.3;stroke-dasharray:none;stroke-opacity:1;paint-order:normal;stop-color:#000000"
         d="m 60.744008,156.23444 c 0.70452,0 1.22172,0.478 2.11357,0 v -30.28205 c -0.17767,-0.72051 -1.40904,-3.287 -2.11357,-4.9305 v -10.67561 h -3.72323 v 10.67561 c 1.24108,2.38419 3.60207,4.56167 3.72323,7.15256 z"
         id="path18560"
         sodipodi:nodetypes="ccccccccc" /><path
         id="path18570"
         style="fill:#ffffff;stroke:#000000;stroke-width:0.396942;stroke-linecap:round;stroke-linejoin:miter;stroke-miterlimit:3.3;stroke-dasharray:none;stroke-opacity:1;paint-order:normal;stop-color:#000000"
         d="m 72.459858,110.62149 c -3.45785,1.15801 -8.05217,2.00413 -11.70472,2.38332 v 8.03 c 3.65255,0.37919 8.24687,1.22479 11.70472,2.3828 0.68272,-1.88808 1.38854,-3.86343 1.38854,-6.39806 0,-2.53463 -0.70582,-4.50998 -1.38854,-6.39806 z"
         sodipodi:nodetypes="ccccsc" /><path
         id="rect18562"
         style="stroke-width:0.396942;stroke-linecap:round;stroke-miterlimit:3.3;stroke-dasharray:none;paint-order:normal;stop-color:#000000"
         d="m 56.856265,113.00459 h 4.007283 c 0.526327,0 0.950049,0.42372 0.950049,0.95005 v 6.13 c 0,0.52633 -0.423722,0.95005 -0.950049,0.95005 h -4.007283 c -0.526327,0 -0.950049,-0.42372 -0.950049,-0.95005 v -6.13 c 0,-0.52633 0.423722,-0.95005 0.950049,-0.95005 z" /></g><path
       id="path28621"
       style="fill:#c8102e;fill-opacity:1;stroke:#000000;stroke-width:0.803261;stroke-linecap:round;stroke-miterlimit:3.3;stroke-dasharray:none;stroke-opacity:1;paint-order:normal;stop-color:#000000"
       d="m 149.3993,44.214205 c -8.03523,-0.05457 -17.18601,7.218684 -30.83608,7.10465 v 10.233788 0.939838 10.233789 9.293428 0.939837 10.233788 c 17.27287,0.104428 27.4908,-11.399199 37.39801,-5.952304 V 77.007231 66.773966 56.540176 46.306387 c -2.14923,-1.487339 -4.31206,-2.076904 -6.56193,-2.092182 z" /><path
       id="rect9191"
       style="fill:#c8102e;fill-opacity:1;stroke-width:0.267753;stroke-linecap:round;stroke-miterlimit:3.3;paint-order:normal;stop-color:#000000"
       d="m 155.96106,77.007444 v 10.233674 c -9.90722,-5.4469 -20.12472,6.056667 -37.39759,5.952239 V 82.019855 c 17.47212,0.14596 27.57248,-11.811694 37.39759,-5.012411 z"
       sodipodi:nodetypes="ccccc" /><path
       style="fill:#970c23;fill-opacity:1;stroke:#000000;stroke-width:0.401698;stroke-linecap:round;stroke-miterlimit:3.3;stroke-dasharray:none;stroke-opacity:1;paint-order:normal;stop-color:#000000"
       d="m 127.7403,87.454469 c 0,1.872075 -9.17708,1.077738 -9.17683,5.738889 -0.70371,-1.706774 -0.77778,-5.038027 0,-8.276979 z"
       id="path9470"
       sodipodi:nodetypes="cccc" /><path
       id="rect9191-2"
       style="fill:#003087;fill-opacity:1;stroke-width:0.267753;stroke-linecap:round;stroke-miterlimit:3.3;paint-order:normal;stop-color:#000000"
       d="m 155.96106,66.77377 v 10.233674 c -9.90722,-5.4469 -20.12472,6.056666 -37.39759,5.95224 V 71.786181 c 17.47212,0.14596 27.57248,-11.811695 37.39759,-5.012411 z"
       sodipodi:nodetypes="ccccc" /><path
       id="rect9191-2-9"
       style="fill:#ffcd00;fill-opacity:1;stroke-width:0.267753;stroke-linecap:round;stroke-miterlimit:3.3;paint-order:normal;stop-color:#000000"
       d="m 149.3993,44.214205 c -8.03524,-0.05457 -17.186,7.218684 -30.83608,7.10465 v 10.233788 0.939838 10.233789 c 17.27287,0.104426 27.4908,-11.399199 37.39801,-5.952304 V 56.540176 46.306387 c -2.14923,-1.48734 -4.31206,-2.076904 -6.56193,-2.092182 z" /><path
       id="path28614"
       style="fill:#c8102e;fill-opacity:1;stroke:#000000;stroke-width:0.803261;stroke-linecap:round;stroke-miterlimit:3.3;stroke-dasharray:none;stroke-opacity:1;paint-order:normal;stop-color:#000000"
       d="m 119.96537,45.544597 c -9.5207,-0.05316 -20.363324,7.031408 -36.536914,6.920338 v 9.968022 0.915298 9.968023 h 5.24e-4 v 9.052725 0.915297 9.968024 c 20.46613,0.101714 32.57263,-11.103242 44.31141,-5.797755 v -9.968023 -9.968023 -9.968022 -9.968023 c -2.54658,-1.448726 -5.1092,-2.022998 -7.77502,-2.037881 z" /><path
       id="rect9191-1"
       style="fill:#c8102e;fill-opacity:1;stroke-width:0.287645;stroke-linecap:round;stroke-miterlimit:3.3;paint-order:normal;stop-color:#000000"
       d="m 127.7403,77.486476 v 9.967993 C 116.00151,82.148977 103.89507,93.353895 83.428919,93.25218 V 82.368758 C 104.13116,82.510929 116.09881,70.863711 127.7403,77.486476 Z"
       sodipodi:nodetypes="ccccc" /><path
       id="rect9191-2-5"
       style="fill:#003087;fill-opacity:1;stroke-width:0.287645;stroke-linecap:round;stroke-miterlimit:3.3;paint-order:normal;stop-color:#000000"
       d="m 127.7403,67.518483 v 9.967993 c -11.73879,-5.30549 -23.84523,5.899427 -44.311381,5.797711 V 72.400765 C 104.13116,72.542936 116.09881,60.895719 127.7403,67.518483 Z"
       sodipodi:nodetypes="ccccc" /><path
       id="rect9191-2-9-0"
       style="fill:#ffcd00;fill-opacity:1;stroke-width:0.287645;stroke-linecap:round;stroke-miterlimit:3.3;paint-order:normal;stop-color:#000000"
       d="m 119.96543,45.544599 c -9.52071,-0.05316 -20.363191,7.031274 -36.536798,6.920202 v 9.968104 0.915439 9.968105 C 103.89477,73.418161 116.00172,62.213188 127.7405,67.518673 V 57.55057 47.582466 c -2.54657,-1.448729 -5.10925,-2.022984 -7.77507,-2.037867 z" /><path
       style="fill:#970c23;fill-opacity:1;stroke:#000000;stroke-width:0.401698;stroke-linecap:round;stroke-miterlimit:3.3;stroke-dasharray:none;stroke-opacity:1;paint-order:normal;stop-color:#000000"
       d="m 94.6269,85.751071 c -2e-6,6.2662 -11.197981,2.059398 -11.19798,7.501111 -1.198642,-5.542593 -1.518893,-10.787642 0,-15.409705 z"
       id="path9548"
       sodipodi:nodetypes="cccc" /><path
       id="path28193"
       style="opacity:1;fill:#c8102e;fill-opacity:1;stroke:#000000;stroke-width:0.803261;stroke-linecap:round;stroke-miterlimit:3.3;stroke-dasharray:none;stroke-opacity:1;paint-order:normal;stop-color:#000000"
       d="m 85.557105,43.469121 c -11.106269,-0.05363 -23.754575,7.093486 -42.62169,6.981429 5.378045,5.996731 7.466214,13.116623 7.407845,19.988258 -4.1e-4,0.04841 -0.0015,0.09677 -0.0021,0.145152 -0.0024,0.19128 -0.0058,0.382451 -0.01153,0.573302 -0.09857,3.26282 -0.67543,6.457602 -1.606962,9.438059 -0.03763,0.120407 -0.07645,0.240053 -0.115232,0.359749 -0.03963,0.12232 -0.07861,0.244978 -0.119423,0.366537 -1.3281,3.955899 -3.277245,7.502535 -5.552086,10.278691 23.874528,0.102616 37.997234,-11.202041 51.690971,-5.849445 V 75.69459 65.638326 55.581539 45.524755 c -2.970678,-1.46159 -5.960032,-2.040619 -9.069804,-2.055634 z"
       sodipodi:nodetypes="ccsccssccccccccc" /><path
       id="rect16241-6-9"
       style="fill:#ffffff;stroke:#000000;stroke-width:0.401698;stroke-linecap:round;stroke-miterlimit:3.3;stroke-dasharray:none;paint-order:normal;stop-color:#000000"
       d="m 40.331456,96.284344 h 2.20222 V 47.269025 h -2.202221 z" /><path
       id="rect9191-2-9-0-5"
       style="opacity:1;fill:#ffcd00;fill-opacity:1;stroke-width:0.312052;stroke-linecap:round;stroke-miterlimit:3.3;paint-order:normal;stop-color:#000000"
       d="m 85.557105,43.469121 c -11.10628,-0.05363 -23.754556,7.093486 -42.62169,6.981429 5.565724,6.206003 7.608254,13.614937 7.394227,20.706712 C 69.850396,69.345194 82.409724,60.862883 94.62691,65.638326 V 55.581539 45.524755 c -2.970682,-1.461591 -5.960029,-2.040619 -9.069805,-2.055634 z m -42.62169,17.961866 v 10.056262 h 5.24e-4 z" /><path
       id="rect9191-1-9"
       style="opacity:1;fill:#c8102e;fill-opacity:1;stroke-width:0.312052;stroke-linecap:round;stroke-miterlimit:3.3;paint-order:normal;stop-color:#000000"
       d="m 85.557629,73.638434 c -9.919018,-0.04789 -21.069508,5.646577 -36.779953,6.785105 -1.325606,4.317307 -3.395915,8.191942 -5.841737,11.176759 23.874552,0.102617 37.997219,-11.202046 51.690971,-5.849445 V 75.69459 c -2.970679,-1.461594 -5.959515,-2.041142 -9.069281,-2.056156 z" /><path
       id="rect9191-2-5-7"
       style="opacity:1;fill:#003087;fill-opacity:1;stroke-width:0.312052;stroke-linecap:round;stroke-miterlimit:3.3;paint-order:normal;stop-color:#000000"
       d="m 85.557629,63.581648 c -9.585885,-0.04629 -20.321432,5.271236 -35.211749,6.656139 -0.0091,3.864119 -0.700922,7.653234 -1.871474,11.12559 C 69.063295,79.945835 82.026938,70.769525 94.62691,75.69459 V 65.637803 c -2.970679,-1.461593 -5.959515,-2.04114 -9.069281,-2.056155 z" /><g
       id="g967"
       transform="matrix(1.0135753,0,0,1.0107322,-1.3289125,-1.3213924)"><path
         id="path15940-5"
         style="fill:#ffffff;stroke:#000000;stroke-width:0.396875;stroke-linecap:round;stroke-linejoin:miter;stroke-miterlimit:3.3;stroke-dasharray:none;stroke-opacity:1;paint-order:normal;stop-color:#000000"
         d="m 62.918844,104.40883 c -2.723537,8.48145 5.533555,16.55415 7.539798,18.17822 2.006259,1.62408 2.340562,1.47588 3.835487,-0.26599 1.49491,-1.74185 4.676864,-3.34737 7.775956,-1.04986 l 0.665062,-0.821 0.665057,-0.82099 c -2.892422,-2.55263 -1.98268,-5.99819 -0.589104,-7.82209 1.393571,-1.82389 1.469075,-2.18159 -0.537183,-3.80566 -2.006251,-1.62407 -11.622342,-8.019122 -19.355073,-3.59263 z" /><path
         style="fill:none;stroke:#000000;stroke-width:0.396875;stroke-linecap:round;stroke-linejoin:miter;stroke-miterlimit:3.3;stroke-dasharray:none;stroke-opacity:1;paint-order:normal;stop-color:#000000"
         d="m 82.070236,121.27101 c -3.793914,-3.07119 -7.530372,-4.50068 -11.01548,-6.65374"
         id="path16092-46"
         sodipodi:nodetypes="cc" /><path
         style="fill:none;stroke:#000000;stroke-width:0.396875;stroke-linecap:round;stroke-linejoin:miter;stroke-miterlimit:3.3;stroke-dasharray:none;stroke-opacity:1;paint-order:normal;stop-color:#000000"
         d="m 83.400355,119.62902 c -3.793921,-3.07118 -5.969505,-6.42752 -8.800834,-9.38765"
         id="path16092-4-5"
         sodipodi:nodetypes="cc" /><path
         id="path20238"
         style="fill:#ffffff;fill-opacity:1;stroke:#000000;stroke-width:0.396875;stroke-linecap:round;stroke-linejoin:miter;stroke-miterlimit:3.3;stroke-dasharray:none;stroke-opacity:1;paint-order:normal;stop-color:#000000"
         d="m 83.400525,119.62878 -1.330158,1.64223 39.759523,32.18602 h 3.35898 z" /><path
         id="rect16245-8"
         style="fill:#ffffff;stroke:#000000;stroke-width:0.396875;stroke-linecap:round;stroke-linejoin:miter;stroke-miterlimit:3.3;stroke-dasharray:none;stroke-opacity:1;paint-order:normal;stop-color:#000000"
         d="m 81.011085,120.47708 c -0.05097,0.063 -0.04096,0.1543 0.02195,0.20522 l 2.490338,2.01594 c 0.06295,0.051 0.154374,0.0418 0.205369,-0.0212 l 0.302125,-0.37296 0.302119,-0.37295 0.183744,-0.22684 0.302126,-0.37296 0.302119,-0.37295 c 0.05097,-0.063 0.04096,-0.1543 -0.02195,-0.20523 l -2.490337,-2.01593 c -0.06295,-0.051 -0.154375,-0.0418 -0.20537,0.0212 l -0.302119,0.37296 -0.302126,0.37297 -0.183742,0.22682 -0.30212,0.37296 z" /></g><path
       id="path21228"
       style="color:#000000;fill:#84bc27;stroke:#000000;stroke-width:2.70477;stroke-linecap:round;stroke-miterlimit:3.3;stroke-dasharray:none;stroke-opacity:1;paint-order:normal"
       d="M 1.3523828,1.3523833 V 15.969993 38.785598 132.2373 C 1.352384,197.02981 49.929,236.95856 86.095029,258.59796 l 11.800802,7.05975 11.800809,-7.05975 c 36.16603,-21.6394 84.74265,-61.56815 84.74265,-126.36066 V 15.969993 1.3523833 Z M 24.264167,38.785598 h 73.631141 73.631152 v 93.452232 c 0,0.83438 -0.0101,1.66386 -0.0293,2.48849 -0.0195,0.82464 -0.0485,1.64484 -0.087,2.45977 -0.0385,0.81493 -0.0863,1.62471 -0.14351,2.43 -0.0573,0.80528 -0.12398,1.6061 -0.19957,2.40179 -0.0756,0.7957 -0.15991,1.58644 -0.25351,2.37258 -0.0935,0.78614 -0.19623,1.56723 -0.30745,2.34384 -0.11123,0.77664 -0.23133,1.54898 -0.35985,2.31619 -0.12852,0.76718 -0.26573,1.52965 -0.41117,2.28745 -0.14545,0.7578 -0.29891,1.51083 -0.46092,2.25927 -0.16202,0.74845 -0.33247,1.49244 -0.51069,2.2316 -0.17823,0.73915 -0.36426,1.47347 -0.55835,2.20338 -0.1941,0.72992 -0.39591,1.45552 -0.6055,2.17625 -0.20958,0.72073 -0.42686,1.43648 -0.65158,2.14806 -0.22472,0.71159 -0.45712,1.41894 -0.69663,2.12142 -0.23951,0.7025 -0.48617,1.40028 -0.74011,2.09375 -0.25394,0.69343 -0.51503,1.38265 -0.78304,2.06712 -0.26801,0.68447 -0.54324,1.36393 -0.82496,2.03946 -0.28173,0.67552 -0.57022,1.34671 -0.8653,2.01334 -0.29507,0.66664 -0.59649,1.32891 -0.90456,1.9867 -0.30808,0.65781 -0.62264,1.31108 -0.94333,1.96009 -0.32072,0.64902 -0.64753,1.29369 -0.98053,1.93396 -0.33298,0.6403 -0.67225,1.27628 -1.01718,1.90789 -0.34493,0.6316 -0.69579,1.25878 -1.05227,1.88176 -0.3565,0.62296 -0.71863,1.2418 -1.08633,1.85618 -0.36769,0.61439 -0.74078,1.22473 -1.11933,1.83059 -0.37855,0.60585 -0.76274,1.20711 -1.15178,1.80449 -0.38905,0.59739 -0.783,1.19099 -1.18217,1.77995 -0.39918,0.58895 -0.8036,1.17326 -1.21256,1.75384 -0.40896,0.58058 -0.82246,1.15706 -1.24083,1.72929 -0.4184,0.57226 -0.84169,1.14029 -1.26914,1.70425 -0.42744,0.56397 -0.85915,1.12394 -1.29531,1.6797 -0.43617,0.55575 -0.87647,1.10707 -1.32097,1.65464 -0.44451,0.54757 -0.8931,1.09169 -1.34561,1.63114 -0.4525,0.53946 -0.90902,1.07471 -1.36916,1.60608 -0.92027,1.06275 -1.85567,2.10932 -2.80433,3.1401 -0.94866,1.03076 -1.9108,2.04588 -2.88499,3.04507 -0.97418,0.9992 -1.9604,1.98254 -2.95726,2.95056 -0.99687,0.96802 -2.00396,1.92037 -3.02066,2.85764 -1.01667,0.93724 -2.04254,1.85932 -3.07616,2.76626 -1.03365,0.90691 -2.07506,1.79894 -3.1228,2.67593 -1.04773,0.87695 -2.10205,1.7392 -3.16102,2.58663 -1.05896,0.84744 -2.123,1.67958 -3.19036,2.49787 -1.06733,0.81832 -2.13791,1.62217 -3.21076,2.41175 -1.07287,0.78957 -2.14784,1.56537 -3.22337,2.32662 -1.07551,0.76126 -2.1517,1.50816 -3.22702,2.24151 -1.0753,0.73335 -2.14953,1.45315 -3.22178,2.15902 -1.07224,0.70584 -2.14236,1.39775 -3.20868,2.07651 -1.06633,0.67876 -2.12915,1.34404 -3.18671,1.99611 -1.05752,0.65208 -2.109884,1.29096 -3.155772,1.91675 -1.045894,-0.62579 -2.098247,-1.26467 -3.155785,-1.91675 -1.057538,-0.65207 -2.120367,-1.31735 -3.186688,-1.99611 -1.066322,-0.67876 -2.136441,-1.37067 -3.208687,-2.07651 -1.072247,-0.70587 -2.146471,-1.42567 -3.221781,-2.15902 -1.07531,-0.73335 -2.151505,-1.48025 -3.22702,-2.24151 -1.075515,-0.76125 -2.150494,-1.53705 -3.223352,-2.32662 -1.072859,-0.78958 -2.143439,-1.59343 -3.210783,-2.41175 -1.067343,-0.81829 -2.131386,-1.65043 -3.190354,-2.49787 -1.058969,-0.84743 -2.113289,-1.70968 -3.161023,-2.58663 -1.047733,-0.87699 -2.08915,-1.76902 -3.122788,-2.67593 -1.033636,-0.90694 -2.059484,-1.82902 -3.076168,-2.76626 -1.016684,-0.93727 -2.023779,-1.88962 -3.02065,-2.85764 -0.996869,-0.96802 -1.9836,-1.95136 -2.957795,-2.95056 -0.974193,-0.99919 -1.936331,-2.01431 -2.884989,-3.04507 -0.94866,-1.03078 -1.883539,-2.07735 -2.803804,-3.1401 -0.460134,-0.53137 -0.916668,-1.06662 -1.369165,-1.60608 -0.452498,-0.53945 -0.90109,-1.08357 -1.345597,-1.63114 -0.444504,-0.54757 -0.884823,-1.09889 -1.320977,-1.65464 -0.436156,-0.55576 -0.867862,-1.11573 -1.295313,-1.6797 -0.427448,-0.56396 -0.850738,-1.13199 -1.269123,-1.70425 -0.418381,-0.57223 -0.831876,-1.14871 -1.240837,-1.72929 -0.408962,-0.58058 -0.813374,-1.16489 -1.212556,-1.75384 -0.399181,-0.58896 -0.79313,-1.18256 -1.182175,-1.77995 -0.389043,-0.59738 -0.773246,-1.19864 -1.151797,-1.80449 -0.378548,-0.60586 -0.751622,-1.2162 -1.11932,-1.83059 -0.3677,-0.61438 -0.729837,-1.23322 -1.086323,-1.85618 -0.356489,-0.62298 -0.707358,-1.25016 -1.052279,-1.88176 -0.34492,-0.63161 -0.684187,-1.26759 -1.017183,-1.90789 -0.332997,-0.64027 -0.659806,-1.28494 -0.98052,-1.93396 -0.320714,-0.64901 -0.635257,-1.30228 -0.94333,-1.96009 -0.308076,-0.65779 -0.609495,-1.32006 -0.904572,-1.9867 -0.295078,-0.66663 -0.583564,-1.33782 -0.865288,-2.01334 -0.281723,-0.67553 -0.556945,-1.35499 -0.824955,-2.03946 -0.268012,-0.68447 -0.529113,-1.37369 -0.783055,-2.06712 -0.25394,-0.69347 -0.500588,-1.39125 -0.740103,-2.09375 -0.239514,-0.70248 -0.4719,-1.40983 -0.696631,-2.12142 -0.224728,-0.71158 -0.441996,-1.42733 -0.651583,-2.14806 -0.209588,-0.72073 -0.411403,-1.44633 -0.605492,-2.17625 -0.194087,-0.72991 -0.380122,-1.46423 -0.558351,-2.20338 -0.178231,-0.73916 -0.34867,-1.48315 -0.510687,-2.2316 -0.162016,-0.74844 -0.316008,-1.50147 -0.461453,-2.25927 -0.145444,-0.7578 -0.282129,-1.52027 -0.410643,-2.28745 -0.128517,-0.76721 -0.248612,-1.53955 -0.359839,-2.31619 -0.11123,-0.77661 -0.213874,-1.5577 -0.30746,-2.34384 -0.09358,-0.78614 -0.177927,-1.57688 -0.25351,-2.37258 -0.07559,-0.79569 -0.142338,-1.59651 -0.199562,-2.40179 -0.05723,-0.80529 -0.105009,-1.61507 -0.143516,-2.43 -0.03851,-0.81493 -0.06752,-1.63513 -0.08694,-2.45977 -0.01943,-0.82463 -0.02933,-1.65411 -0.02933,-2.48849 z" /><g
       aria-label="ACCION COMUNAL"
       transform="matrix(0.80916028,0,0,1.2656426,-2.5335538,-1.2697637)"
       id="text302"
       style="font-weight:bold;font-size:31.3371px;line-height:1;font-family:'Helvetica CE 55 Roman';-inkscape-font-specification:'Helvetica CE 55 Roman,  Bold';text-align:justify;fill:#d40000;stroke:#000000;stroke-width:11.7515;stroke-linecap:round;stroke-miterlimit:3.3;paint-order:normal;stop-color:#000000"><path
         d="m 25.290623,27.623487 h 4.575216 L 25.008589,5.7188552 h -6.894162 l -4.85725,21.9046318 h 4.543879 l 1.002787,-4.481205 h 5.483993 z m -5.51533,-8.805724 1.786215,-8.084972 1.786215,8.084972 z"
         style="font-family:Soria;-inkscape-font-specification:'Soria Bold';fill:#ffffff;stroke:none;stroke-linecap:round;paint-order:normal"
         id="path28751" /><path
         d="m 38.201498,23.643676 c -1.9429,0 -3.509755,-2.694991 -3.509755,-6.016723 0,-0.156686 0,-0.846102 0,-1.002787 0,-0.188023 0,-0.814765 0,-0.97145 0,-3.321733 1.566855,-5.9853863 3.509755,-5.9853863 1.41017,0 2.224934,1.4101693 2.789002,3.4784183 h 5.013936 c -0.75209,-4.5438797 -3.729115,-7.9282864 -7.802938,-7.9282864 -4.606553,0 -8.335668,4.3871939 -8.335668,9.8085124 0,0.250696 -0.03134,1.284821 -0.03134,1.566855 0,0.282033 0.03134,1.410169 0.03134,1.660866 0,5.452655 3.729115,9.839849 8.335668,9.839849 4.073823,0 7.050848,-3.415744 7.802938,-7.928286 H 40.9905 c -0.564068,2.068248 -1.378832,3.478418 -2.789002,3.478418 z"
         style="font-family:Soria;-inkscape-font-specification:'Soria Bold';fill:#ffffff;stroke:none;stroke-linecap:round;paint-order:normal"
         id="path28753" /><path
         d="m 55.186198,23.643676 c -1.9429,0 -3.509755,-2.694991 -3.509755,-6.016723 0,-0.156686 0,-0.846102 0,-1.002787 0,-0.188023 0,-0.814765 0,-0.97145 0,-3.321733 1.566855,-5.9853863 3.509755,-5.9853863 1.410169,0 2.224934,1.4101693 2.789001,3.4784183 h 5.013936 c -0.75209,-4.5438797 -3.729114,-7.9282864 -7.802937,-7.9282864 -4.606554,0 -8.335669,4.3871939 -8.335669,9.8085124 0,0.250696 -0.03134,1.284821 -0.03134,1.566855 0,0.282033 0.03134,1.410169 0.03134,1.660866 0,5.452655 3.729115,9.839849 8.335669,9.839849 4.073823,0 7.050847,-3.415744 7.802937,-7.928286 h -5.013936 c -0.564067,2.068248 -1.378832,3.478418 -2.789001,3.478418 z"
         style="font-family:Soria;-inkscape-font-specification:'Soria Bold';fill:#ffffff;stroke:none;stroke-linecap:round;paint-order:normal"
         id="path28755" /><path
         d="M 68.849168,27.654825 V 5.7188552 H 64.3993 V 27.654825 Z"
         style="font-family:Soria;-inkscape-font-specification:'Soria Bold';fill:#ffffff;stroke:none;stroke-linecap:round;paint-order:normal"
         id="path28757" /><path
         d="m 87.181351,15.025974 c 0,-5.4213185 -3.729115,-9.8085124 -8.335668,-9.8085124 -4.606554,0 -8.335669,4.3871939 -8.335669,9.8085124 0,0.250696 -0.03134,1.284821 -0.03134,1.566855 0,0.282033 0.03134,1.410169 0.03134,1.660866 0,5.452655 3.729115,9.839849 8.335669,9.839849 4.606553,0 8.335668,-4.387194 8.335668,-9.839849 0,-0.250697 0.06267,-1.378833 0.06267,-1.660866 0,-0.282034 -0.06267,-1.316159 -0.06267,-1.566855 z m -4.731902,2.600979 c 0,3.321732 -1.598192,6.016723 -3.603766,6.016723 -2.005575,0 -3.603767,-2.694991 -3.603767,-6.016723 0,-0.156686 -0.03134,-0.846102 -0.03134,-1.002787 0,-0.188023 0.03134,-0.814765 0.03134,-0.97145 0,-3.321733 1.598192,-5.9853863 3.603767,-5.9853863 2.005574,0 3.603766,2.6636533 3.603766,5.9853863 0,0.156685 0.03134,0.783427 0.03134,0.97145 0,0.156685 -0.03134,0.846101 -0.03134,1.002787 z"
         style="font-family:Soria;-inkscape-font-specification:'Soria Bold';fill:#ffffff;stroke:none;stroke-linecap:round;paint-order:normal"
         id="path28759" /><path
         d="M 99.935577,5.7188552 V 22.546877 L 99.653544,20.384618 95.423035,5.7188552 H 88.873581 V 27.623487 H 93.32345 V 11.704241 l 0.282033,2.16226 3.948475,13.756986 h 6.862822 V 5.7188552 Z"
         style="font-family:Soria;-inkscape-font-specification:'Soria Bold';fill:#ffffff;stroke:none;stroke-linecap:round;paint-order:normal"
         id="path28761" /><path
         d="m 123.5324,23.643676 c -1.9429,0 -3.50975,-2.694991 -3.50975,-6.016723 0,-0.156686 0,-0.846102 0,-1.002787 0,-0.188023 0,-0.814765 0,-0.97145 0,-3.321733 1.56685,-5.9853863 3.50975,-5.9853863 1.41017,0 2.22494,1.4101693 2.78901,3.4784183 h 5.01393 c -0.75209,-4.5438797 -3.72911,-7.9282864 -7.80294,-7.9282864 -4.60655,0 -8.33566,4.3871939 -8.33566,9.8085124 0,0.250696 -0.0313,1.284821 -0.0313,1.566855 0,0.282033 0.0313,1.410169 0.0313,1.660866 0,5.452655 3.72911,9.839849 8.33566,9.839849 4.07383,0 7.05085,-3.415744 7.80294,-7.928286 h -5.01393 c -0.56407,2.068248 -1.37884,3.478418 -2.78901,3.478418 z"
         style="font-family:Soria;-inkscape-font-specification:'Soria Bold';fill:#ffffff;stroke:none;stroke-linecap:round;paint-order:normal"
         id="path28763" /><path
         d="m 148.85278,15.025974 c 0,-5.4213185 -3.72912,-9.8085124 -8.33567,-9.8085124 -4.60656,0 -8.33567,4.3871939 -8.33567,9.8085124 0,0.250696 -0.0313,1.284821 -0.0313,1.566855 0,0.282033 0.0313,1.410169 0.0313,1.660866 0,5.452655 3.72911,9.839849 8.33567,9.839849 4.60655,0 8.33567,-4.387194 8.33567,-9.839849 0,-0.250697 0.0627,-1.378833 0.0627,-1.660866 0,-0.282034 -0.0627,-1.316159 -0.0627,-1.566855 z m -4.73191,2.600979 c 0,3.321732 -1.59819,6.016723 -3.60376,6.016723 -2.00558,0 -3.60377,-2.694991 -3.60377,-6.016723 0,-0.156686 -0.0313,-0.846102 -0.0313,-1.002787 0,-0.188023 0.0313,-0.814765 0.0313,-0.97145 0,-3.321733 1.59819,-5.9853863 3.60377,-5.9853863 2.00557,0 3.60376,2.6636533 3.60376,5.9853863 0,0.156685 0.0313,0.783427 0.0313,0.97145 0,0.156685 -0.0313,0.846101 -0.0313,1.002787 z"
         style="font-family:Soria;-inkscape-font-specification:'Soria Bold';fill:#ffffff;stroke:none;stroke-linecap:round;paint-order:normal"
         id="path28765" /><path
         d="m 165.11676,5.7188552 -3.82313,14.6657628 -0.18802,1.253484 -0.18802,-1.253484 -3.82313,-14.6657628 h -6.54945 V 27.623487 h 4.44986 V 11.704241 l 0.28204,2.16226 3.57243,13.756986 h 4.51254 l 3.57243,-13.756986 0.28203,-2.16226 v 15.919246 h 4.48121 V 5.7188552 Z"
         style="font-family:Soria;-inkscape-font-specification:'Soria Bold';fill:#ffffff;stroke:none;stroke-linecap:round;paint-order:normal"
         id="path28767" /><path
         d="m 182.79089,5.7188552 c 0,0 0,14.4464028 0,15.6998868 0,1.253484 -1.00278,2.256271 -2.25627,2.256271 -1.25348,0 -2.25627,-1.002787 -2.25627,-2.256271 0,-1.253484 0,-15.6998868 0,-15.6998868 h -4.51254 c 0,0 0,14.5090768 0,15.6058758 0,3.603766 2.82034,6.549453 6.36143,6.768813 0.12535,0 0.2507,0 0.40738,0 0.12535,0 0.2507,0 0.37605,0 3.57243,-0.21936 6.39276,-3.165047 6.39276,-6.768813 0,-1.096799 0,-15.6058758 0,-15.6058758 z"
         style="font-family:Soria;-inkscape-font-specification:'Soria Bold';fill:#ffffff;stroke:none;stroke-linecap:round;paint-order:normal"
         id="path28769" /><path
         d="M 200.43368,5.7188552 V 22.546877 l -0.28204,-2.162259 -4.2305,-14.6657628 h -6.54946 V 27.623487 h 4.44987 V 11.704241 l 0.28203,2.16226 3.94848,13.756986 h 6.86282 V 5.7188552 Z"
         style="font-family:Soria;-inkscape-font-specification:'Soria Bold';fill:#ffffff;stroke:none;stroke-linecap:round;paint-order:normal"
         id="path28771" /><path
         d="m 218.01377,27.623487 h 4.57521 L 217.73173,5.7188552 h -6.89416 l -4.85725,21.9046318 h 4.54388 l 1.00279,-4.481205 h 5.48399 z m -5.51533,-8.805724 1.78621,-8.084972 1.78622,8.084972 z"
         style="font-family:Soria;-inkscape-font-specification:'Soria Bold';fill:#ffffff;stroke:none;stroke-linecap:round;paint-order:normal"
         id="path28773" /><path
         d="M 228.10433,23.173619 V 5.7188552 h -4.44987 V 27.623487 h 11.6574 v -4.449868 z"
         style="font-family:Soria;-inkscape-font-specification:'Soria Bold';fill:#ffffff;stroke:none;stroke-linecap:round;paint-order:normal"
         id="path28775" /></g><g
       aria-label="COLO  MBIA"
       id="text2504"
       style="font-weight:bold;font-size:16.9333px;line-height:1;font-family:Soria;-inkscape-font-specification:'Soria Bold';text-align:justify;letter-spacing:8.90058px;fill:#ffffff;stroke-width:0.264583;stroke-linecap:round;stroke-miterlimit:3.3;paint-order:normal;stop-color:#000000"
       transform="matrix(1.0135795,0,0,1.0103872,-2.5335538,-1.2697637)"><path
         d="m 41.298973,203.22008 -0.294443,0.20223 q -0.766182,0.64117 -1.324041,1.37297 -0.568726,0.71881 -0.875064,1.46093 -0.612677,1.48424 -0.319199,2.91674 0.28473,1.39566 1.317118,2.62935 0.923715,1.10382 2.119321,1.58267 1.147899,0.47461 2.361757,0.34202 1.20299,-0.14557 2.331211,-0.80266 l -1.640953,-1.96091 q -2.079146,1.0775 -3.535356,-0.66265 -0.608565,-0.72722 -0.603845,-1.5923 0.0068,-0.88893 0.501614,-1.7225 0.496892,-0.85742 1.237102,-1.47685 l 0.05618,-0.0912 q 1.558336,-1.30407 2.973888,-1.40672 1.439406,-0.10053 2.40659,1.05524 1.325803,1.58431 0.02855,3.33229 l 1.640953,1.96091 q 0.845945,-0.86248 1.190424,-2.03396 0.314268,-1.10203 0.01894,-2.37843 -0.275709,-1.22657 -1.242893,-2.38234 -0.412955,-0.49347 -0.85161,-0.83296 -0.471256,-0.37844 -0.929254,-0.6355 -1.011408,-0.52259 -2.041341,-0.566 -1.053786,-0.0455 -2.234497,0.39053 -0.669468,0.22903 -1.189186,0.53147 -0.491627,0.25684 -1.101976,0.76761 z"
         style="font-family:Mytupi;-inkscape-font-specification:'Mytupi Bold';stroke-linecap:round;paint-order:normal"
         id="path4212" /><path
         d="m 53.736172,218.56796 q -0.541172,0.58356 -0.863365,1.25471 -0.357637,0.68448 -0.568988,1.43534 -0.366932,1.39177 0.06035,2.87344 0.413958,1.44622 1.705224,2.64371 0.943617,0.87509 2.062446,1.31222 1.093996,0.4141 2.205404,0.33627 1.087477,-0.0769 2.216295,-0.64667 1.092471,-0.58036 2.117244,-1.68539 1.185974,-1.27885 1.667356,-2.4952 0.481382,-1.21635 0.415071,-2.34018 -0.05299,-1.08838 -0.582788,-2.11086 -0.491647,-0.96401 -1.323519,-1.73547 -1.452674,-1.34717 -3.02167,-1.64752 -1.53265,-0.28973 -3.005302,0.37685 -1.460235,0.6781 -2.784381,2.10594 z m 2.470857,1.02124 q 0.449058,-0.48422 0.964705,-0.79123 0.537773,-0.35576 1.011871,-0.49345 0.982739,-0.31262 1.757526,-0.10217 0.749955,0.18742 1.321092,0.71708 1.539586,1.42778 1.031776,2.89675 -0.506907,1.4929 -1.589252,2.66001 -0.656316,0.70771 -1.502478,1.14699 -0.870093,0.44018 -1.817595,0.41597 -0.983848,-0.0348 -1.852969,-0.84082 -1.266434,-1.17446 -0.963385,-2.67167 0.30305,-1.4972 1.638709,-2.93746 z"
         style="font-family:Mytupi;-inkscape-font-specification:'Mytupi Bold';stroke-linecap:round;paint-order:normal"
         id="path4214" /><path
         d="m 66.613359,236.98469 6.905647,5.12917 1.322681,-1.78078 -4.852984,-3.60456 5.936921,-7.99315 -2.052663,-1.52462 z"
         style="font-family:Mytupi;-inkscape-font-specification:'Mytupi Bold';stroke-linecap:round;paint-order:normal"
         id="path4216" /><path
         d="m 84.364612,242.88146 q -0.417407,0.67762 -0.602982,1.39861 -0.217754,0.74094 -0.279108,1.51856 -0.08938,1.43656 0.617782,2.8069 0.687204,1.33816 2.186624,2.26178 1.095731,0.67496 2.278192,0.88625 1.153626,0.19353 2.228702,-0.0989 1.051777,-0.28686 2.048303,-1.06518 0.95881,-0.78166 1.749219,-2.06482 0.914744,-1.485 1.150486,-2.77173 0.235743,-1.28673 -0.04777,-2.37622 -0.26356,-1.05732 -0.982017,-1.95731 -0.669668,-0.85004 -1.635641,-1.44507 -1.686847,-1.03908 -3.284298,-1.02868 -1.559734,0.0137 -2.87471,0.95388 -1.300559,0.94902 -2.321875,2.60704 z m 2.622246,0.52143 q 0.346359,-0.56228 0.792488,-0.96367 0.458355,-0.45352 0.896643,-0.68074 0.903218,-0.4977 1.704135,-0.44188 0.772082,0.038 1.435288,0.44658 1.78777,1.10125 1.575213,2.64091 -0.207021,1.56297 -1.041835,2.91821 -0.506218,0.8218 -1.250844,1.41719 -0.767924,0.60093 -1.702056,0.76137 -0.971849,0.1571 -1.981074,-0.46457 -1.470585,-0.90586 -1.46437,-2.43342 0.0062,-1.52755 1.036412,-3.19998 z"
         style="font-family:Mytupi;-inkscape-font-specification:'Mytupi Bold';stroke-linecap:round;paint-order:normal"
         id="path4218" /><path
         d="m 111.71216,250.59923 1.98271,-1.33023 -5.66054,-8.43703 0.009,-0.047 7.52149,7.22927 2.08114,-1.39627 -3.79033,-9.69178 0.009,-0.047 5.6794,8.46516 1.9827,-1.33023 -6.78321,-10.11037 -3.05139,2.04722 3.50712,9.20888 -7.16317,-6.75598 -3.10764,2.08497 z"
         style="letter-spacing:8.88471px;stroke-linecap:round;paint-order:normal"
         id="path4220" /><path
         d="m 133.89254,234.53003 q 0.81718,-0.65911 1.32227,-1.32756 0.50508,-0.66844 0.68744,-1.3594 0.17982,-0.66715 0.0288,-1.3938 -0.11612,-0.60249 -0.27602,-0.90862 -0.14926,-0.29295 -0.38314,-0.58292 -0.68037,-0.84355 -1.55715,-1.20235 -0.9006,-0.36136 -1.84068,-0.0164 0.8065,-1.34666 -0.53298,-3.00738 -0.58427,-0.6165 -1.3152,-0.87539 -0.75474,-0.26145 -1.63191,-0.0543 -0.82699,0.18842 -1.74962,0.93257 l -4.66584,3.76332 7.64357,9.47668 z m -8.67401,-5.92622 2.29339,-1.84976 q 0.804,-0.64848 1.31976,-0.62939 0.51577,0.0191 0.91974,0.51996 0.38271,0.47449 0.26327,1.02768 -0.10626,0.54256 -0.72574,1.04221 l -2.41201,1.94544 z m 5.00713,6.20795 -2.05175,-2.54381 2.54381,-2.05175 q 0.56675,-0.45712 1.19859,-0.50989 0.64502,-0.0634 1.20845,0.63516 0.53155,0.65902 0.37809,1.3049 -0.15345,0.64589 -0.75974,1.1349 z"
         style="letter-spacing:8.88471px;stroke-linecap:round;paint-order:normal"
         id="path4222" /><path
         d="m 145.23415,224.69519 1.86073,-1.75373 -8.35056,-8.86002 -1.86072,1.75373 z"
         style="letter-spacing:8.88471px;stroke-linecap:round;paint-order:normal"
         id="path4224" /><path
         d="m 154.04107,216.1067 1.7599,-2.01515 -1.31955,-2.29898 2.95173,-3.37985 2.38885,1.07458 1.82673,-2.09169 -11.99944,-4.76909 -1.93812,2.21923 z m -0.69401,-6.18159 -2.6118,-4.37177 4.65017,2.03776 z"
         style="letter-spacing:8.88471px;stroke-linecap:round;paint-order:normal"
         id="path4226" /></g><path
       id="path19747"
       style="opacity:1;fill:#ffffff;stroke:#000000;stroke-width:0.401698;stroke-linecap:round;stroke-miterlimit:3.3;stroke-dasharray:none;paint-order:normal;stop-color:#000000"
       d="m 44.223592,45.370112 a 2.7910276,2.7822366 0 0 1 -2.791027,2.782237 2.7910276,2.7822366 0 0 1 -2.791027,-2.782237 2.7910276,2.7822366 0 0 1 2.791027,-2.782236 2.7910276,2.7822366 0 0 1 2.791027,2.782236 z" /><path
       id="path22128"
       style="fill:#000000;fill-opacity:1;fill-rule:nonzero;stroke:none;stroke-width:0.268107;stroke-linecap:round;paint-order:normal"
       d="m 100.66242,157.78375 c -0.65853,-0.019 -1.352611,0.10007 -1.969392,0.33428 0,0 -1.812623,0.7359 -1.946888,2.8774 -0.134266,2.14145 1.57e-4,4.55057 0.671485,4.88517 0.67133,0.33461 0.04077,0.80313 -0.718102,1.00388 -0.758868,0.20078 -4.048449,0.93664 -4.719775,1.87353 -0.671328,0.93688 -1.141397,5.22009 -1.477059,6.15699 -0.335664,0.93689 -1.00705,3.61365 -1.141315,6.49128 -0.08804,1.88695 -0.376661,3.65684 -0.490257,5.1249 -0.145462,-1.10034 -1.093326,-3.31503 -1.154409,-3.95441 -0.06712,-0.70266 -0.604397,-5.05245 -0.637963,-5.9559 -0.03357,-0.90343 -0.805356,-3.71402 -2.751936,-4.38323 0,0 -0.90614,-0.13364 -0.90614,-0.73594 0,-0.60228 -0.06712,-1.0708 -0.402784,-1.53925 -0.335664,-0.46846 -0.805965,-0.80318 -0.906663,-1.47239 -0.100689,-0.66921 0.06708,-1.23785 0.03352,-1.80667 -0.03357,-0.56885 -0.402342,-1.43882 -0.738005,-2.10805 -0.335663,-0.6692 -0.513478,-1.57281 -1.34297,-1.97433 -0.717782,-0.34746 -1.812658,-0.40172 -2.316152,-0.3348 -0.503496,0.0669 -2.382924,0.53529 -2.584327,1.70639 -0.201394,1.17114 -0.402773,1.84044 -0.805573,3.11192 -0.402799,1.27151 -1.544101,2.37609 -1.544101,3.34644 0,0.97036 0.190131,2.27519 0.190131,2.27519 0,0 -1.253169,0.71347 -1.432011,2.31958 -0.179108,1.60611 -0.627108,6.24624 -0.716531,7.67378 -0.08942,1.42757 -0.716129,2.94479 -0.626439,5.08627 0.08941,2.14148 -0.268199,3.39066 -0.447308,4.1043 -0.179108,0.71393 -0.08958,2.05208 0.716007,2.40891 0.805589,0.35709 1.700711,0.80331 1.700711,0.80331 0,0 0.0891,-0.98158 -0.358265,-1.33868 -0.447642,-0.35682 -0.486068,-1.60611 -0.486068,-1.60611 0,0 0.519972,-0.17804 0.620679,0.29041 0.100688,0.46844 0.268341,0.8366 0.536873,0.97044 0,0 -0.16761,-1.20467 -0.16761,-1.50582 0,-0.30116 -0.73866,-1.40548 -0.637962,-2.00776 0.100689,-0.60229 0.503216,-2.74393 1.006703,-3.58043 0.503497,-0.8365 1.007004,-4.38296 1.174838,-5.72139 l 0.268698,-1.30525 c 0,0 0.57092,2.64327 0.57092,3.84785 0,1.20457 -0.772217,4.85183 -1.04075,5.8222 -0.268524,0.97035 -0.973352,3.27925 0.335743,7.36145 1.309087,4.08218 2.148363,6.69213 2.28263,7.99708 0.134265,1.30499 -0.100689,4.28284 0,4.95203 0.100689,0.66923 2.617762,6.2241 2.684893,7.02717 0.06713,0.80306 -0.167778,2.27496 -0.436309,2.50918 -0.268531,0.23423 -1.04027,0.56896 -1.006704,0.93702 0.03357,0.36807 4.430771,0.33495 4.732871,0.2011 0.302097,-0.13385 -0.335832,-2.47633 -0.268699,-3.51359 0.06712,-1.03731 1.007173,-3.71421 1.443535,-4.71803 0.436364,-1.00382 1.241857,-4.01527 0.46983,-7.9971 0,0 -0.268471,-0.90322 1.141315,-5.01888 1.409518,-4.11567 1.510245,-7.93058 0.973182,-10.23936 -0.537061,-2.30879 -1.678188,-5.58771 -1.678188,-6.08962 0,-0.5019 0.302221,-2.97822 0.302221,-2.97822 0,0 0.06703,2.67711 0.469829,4.01552 0.402528,1.33844 2.181453,5.78872 2.248584,6.35756 0.06713,0.56883 0.436309,2.60998 0.436309,3.68073 0.496673,0.80194 2.468999,2.42282 3.31657,1.29271 0.156459,-0.1145 0.232639,-0.31763 0.249843,-0.58393 0.24572,-0.22236 0.164773,-1.88081 -0.142468,-2.98344 -0.335664,-1.20458 0.134434,-4.55071 0.268699,-5.28683 0.134266,-0.73614 2.248585,-7.16088 2.248585,-7.16088 0,0 -0.302132,3.21252 -0.369265,4.48404 -0.06713,1.27148 -0.53705,3.54679 -0.402787,4.28294 0.134267,0.73613 0.06748,4.08197 0.134612,5.01889 0.06712,0.93687 1.208446,6.22371 1.141314,6.89293 -0.06712,0.6692 -0.403713,3.6809 -0.503874,4.55089 -0.100436,0.86996 0.43674,4.28255 0.503874,4.68407 0.06712,0.40151 0.469831,1.13786 0.469831,1.40554 0,0.26768 -1.69e-4,0.6021 -0.268699,1.2713 -0.268532,0.66922 -0.335485,1.4722 -0.134088,1.67296 0.201399,0.20078 0.201221,0.80337 0.134088,1.27183 -0.06712,0.46845 0.537032,2.20826 1.208359,2.81055 0.671326,0.60228 2.01393,0.40152 2.416718,0 0.402806,-0.40152 0.335987,-1.27165 0.940184,-2.00776 0.60419,-0.73614 -0.0671,-2.20807 0,-3.01112 0.06709,-0.80306 0.604001,-2.67697 0.536872,-3.61386 -0.0671,-0.9369 -0.604011,-8.23127 -0.536872,-9.10127 0.06709,-0.86997 0.347148,-5.82245 0.542635,-6.09013 0.195486,-0.26768 1.068417,1.13778 1.135547,4.14924 0.0671,3.01144 -0.26853,4.283 0,5.82218 0.26853,1.53918 0.21943,4.14923 0.009,4.68461 -0.21052,0.53537 -0.27767,3.47964 -0.21054,4.01499 0.0671,0.53539 -1.208106,2.4095 -1.00671,3.41331 0.201396,1.00383 0.73864,2.74361 0.67149,3.34591 -0.0671,0.60228 0.72176,1.53926 0.72176,1.53926 h 3.23906 c 0,0 0.87263,0.13384 -0.33575,-2.14149 0,0 -0.32987,-0.73596 0.64058,-2.27517 0.97073,-1.53918 0.36655,-3.88169 0.4337,-5.08626 0.0671,-1.20459 0.2685,-7.82956 0.40278,-8.76646 0.13425,-0.93688 0.87261,-1.67317 0.87261,-2.54312 0,-0.86999 0.60384,-7.62892 0.67096,-9.16812 0.0671,-1.53919 0,-4.21609 0,-4.21609 0,0 1.14132,3.14509 1.14132,3.94814 0,0.80306 -0.80539,3.07849 -0.53687,3.61388 0.26856,0.53535 1.54382,2.00743 1.74524,2.34204 0.20138,0.3346 2.81982,1.27175 3.3569,1.33867 0.53704,0.0669 1.74523,-2.07461 1.74523,-2.07461 0,0 -0.2014,4.34971 0,5.48738 0.2014,1.13766 -0.2014,1.53965 0,2.20886 0.2014,0.66921 0.0587,4.14871 0.0587,4.14871 l 1.46345,0.49568 c 0,0 0.22343,1.11062 -0.045,2.51596 -0.26854,1.40535 0.4027,4.0823 0.46982,5.21996 0.0671,1.13767 0.26854,2.27527 0,2.74371 -0.26852,0.46845 -1.54889,1.36388 -1.48177,1.76541 0.0671,0.40153 2.31623,0.27546 3.05469,0.0747 0.73846,-0.20076 -0.096,-4.45021 -0.0288,-5.38711 0.0671,-0.93689 0.29251,-3.27919 0.31427,-3.68072 0.0218,-0.40152 0.42426,-3.01111 0.42426,-3.01111 l 0.67147,-0.0669 c 0,0 0.20148,2.40908 0.33575,3.27907 0.13427,0.86997 0.0225,4.59502 0.0896,5.39808 0.0671,0.80303 -0.83299,2.92552 -0.69872,3.39397 0.13426,0.46844 0.84387,0.18483 1.47706,0.17549 1.14127,-0.0169 1.14612,-0.60242 1.07898,-1.4724 -0.0671,-0.86996 0.13391,-5.95588 0.26818,-6.49126 0.13425,-0.53536 0.40279,-4.75146 0.40279,-4.75146 l 1.20835,-0.3348 -0.46982,-6.15648 0.46982,-0.20109 -0.67095,-4.88517 c 0,0 1.14088,0.46859 1.47653,-0.13371 0.33567,-0.60227 0.53706,-5.55476 0,-6.09013 -0.53704,-0.53538 -1.4768,-1.13752 -2.08097,-1.20445 0,0 -0.0672,-1.33824 -1.47707,-1.2713 0,0 1.14132,-0.66934 1.14132,-1.4724 0,-0.80305 0.47014,-3.68085 -0.93966,-4.08238 -1.40978,-0.40152 -2.81965,-1.13752 -3.89377,0.40166 -1.07413,1.5392 -1.20855,3.34605 -0.67149,4.81831 l 0.40279,1.07074 c 0,0 -1.54391,0.20057 -2.08097,0.73594 -0.53706,0.53537 -1.74554,1.13804 -2.68541,4.41718 l -1.81229,0.46851 c 0,0 -0.0673,-2.40923 0.13408,-3.68073 0.20141,-1.27148 -0.53679,-9.23554 -0.6039,-10.77474 -0.0671,-1.53918 -1.14124,-5.75493 -1.20836,-6.69184 -0.0671,-0.93689 -0.74358,-2.60978 -1.71433,-3.34591 -0.971,-0.73614 -3.72344,-1.07107 -4.59617,-2.87794 v -1.07072 c 0,0 1.2081,-0.66934 1.4095,-1.47241 0.2014,-0.80303 0.20125,-3.88302 -0.6715,-4.81831 -0.4909,-0.5261 -1.2788,-0.77787 -2.1255,-0.80227 z m -20.363474,46.17432 c 0,0 0.786222,1.00427 0.594489,2.20885 -0.19173,1.20459 -0.594489,3.61334 -0.594489,3.61334 0,0 0.268529,-1.60587 0,-2.91083 -0.268532,-1.30498 0,-2.91136 0,-2.91136 z" /><path
       style="fill:#970c23;stroke:#000000;stroke-width:2.67799;stroke-linecap:round;stroke-miterlimit:3.3;stroke-dasharray:none;paint-order:normal;stop-color:#000000"
       d="m 24.264168,96.284091 147.262482,2.53e-4"
       id="path1023" /><path
       style="fill:#970c23;stroke:#000000;stroke-width:2.67799;stroke-linecap:round;stroke-miterlimit:3.3;stroke-dasharray:none;paint-order:normal;stop-color:#000000"
       d="M 169.26529,153.78256 H 26.525346"
       id="path1027" /></g></svg>
